<?xml version="1.0" encoding="utf-8"?>
<!-- Generator: Adobe Illustrator 16.0.0, SVG Export Plug-In . SVG Version: 6.00 Build 0)  -->
<!DOCTYPE svg PUBLIC "-//W3C//DTD SVG 1.1//EN" "http://www.w3.org/Graphics/SVG/1.1/DTD/svg11.dtd">
<svg version="1.1" id="Layer_1" xmlns="http://www.w3.org/2000/svg" xmlns:xlink="http://www.w3.org/1999/xlink" x="0px" y="0px"
	 width="69.783px" height="76.007px" viewBox="0 0 69.783 76.007" enable-background="new 0 0 69.783 76.007" xml:space="preserve">
<circle fill="#272D47" cx="35.062" cy="34.761" r="31.425"/>
<g>
	<polygon fill="#FFFFFF" points="44.757,35.777 44.757,43.308 51.211,45.458 51.211,33.626 	"/>
	<path fill="#FFFFFF" d="M25.931,31.474c2.675,0,4.841-2.167,4.841-4.841c0-2.674-2.167-4.841-4.841-4.841
		c-2.672,0-4.841,2.167-4.841,4.841C21.09,29.307,23.258,31.474,25.931,31.474z M25.931,23.944c1.483,0,2.689,1.207,2.689,2.689
		c0,1.482-1.206,2.689-2.689,2.689s-2.689-1.207-2.689-2.689C23.242,25.15,24.447,23.944,25.931,23.944z"/>
	<path fill="#FFFFFF" d="M38.84,17.489c-3.862,0-6.992,3.13-6.992,6.993c0,3.861,3.13,6.992,6.992,6.992s6.993-3.131,6.993-6.992
		C45.833,20.62,42.702,17.489,38.84,17.489z M38.84,29.323c-2.668,0-4.841-2.171-4.841-4.841c0-2.67,2.173-4.841,4.841-4.841
		c2.67,0,4.841,2.171,4.841,4.841C43.681,27.151,41.51,29.323,38.84,29.323z"/>
	<path fill="#FFFFFF" d="M41.529,32.55H23.242c-1.188,0-2.152,0.963-2.152,2.152v10.757c0,1.189,0.964,2.151,2.152,2.151h18.288
		c1.189,0,2.152-0.962,2.152-2.151V34.702C43.681,33.513,42.718,32.55,41.529,32.55z"/>
</g>
</svg>
